#!OML:ASF H:\Dans Jumps\Project 1\Capture day 1\Session 1\subject.ASF
:FULLY-SPECIFIED
:DEGREES
256
root 0.460975 16.6227 -14.7051 12.0199 -0.889239 -2.2151
lowerback 7.29969 -0.0872054 -0.0858528
upperback 4.78444 -0.122076 2.19753
thorax 0.851244 -0.0947144 2.31955
lowerneck -16.2107 0.888963 -1.26426
upperneck 20.3588 1.87462 -1.36576
head 9.07302 0.624557 -0.0232788
rclavicle 1.98785e-016 -8.74653e-015
rhumerus -33.1011 -18.9483 -73.5658
rradius 22.5187
rwrist 35.0599
rhand -19.9196 -26.5047
rfingers 7.12502
rthumb 6.41739 -56.3875
lclavicle 1.98785e-016 -8.74653e-015
lhumerus -29.7406 2.59144 84.5894
lradius 16.7345
lwrist 6.04115
lhand -26.7881 -5.45597
lfingers 7.12502
lthumb -0.21543 24.5237
rfemur -36.6677 -2.17905 21.0828
rtibia 47.2347
rfoot -22.337 -3.89142
rtoes 4.51338
lfemur -36.6256 10.7614 -19.4433
ltibia 47.0879
lfoot -20.9884 5.4469
ltoes -3.06941
257
root 0.461113 16.5941 -14.7132 12.1279 -0.901914 -2.22291
lowerback 7.53912 -0.0779376 -0.0979951
upperback 4.81355 -0.108315 2.2104
thorax 0.748848 -0.0879438 2.33974
lowerneck -16.2691 0.893838 -1.2851
upperneck 20.1443 1.88083 -1.35504
head 9.00943 0.629442 -0.0155163
rclavicle -6.4605e-015 4.77083e-015
rhumerus -33.4857 -18.9809 -73.3612
rradius 22.4711
rwrist 35.1124
rhand -19.8625 -26.5173
rfingers 7.12502
rthumb 6.47258 -56.3984
lclavicle -6.4605e-015 4.77083e-015
lhumerus -30.2288 2.55688 84.565
lradius 16.6179
lwrist 6.0668
lhand -26.6956 -5.37969
lfingers 7.12502
lthumb -0.126132 24.6
rfemur -37.1162 -2.14579 21.0966
rtibia 47.7996
rfoot -22.6449 -4.0392
rtoes 4.27272
lfemur -37.0738 10.7731 -19.4702
ltibia 47.6471
lfoot -21.218 5.60185
ltoes -3.218
258
root 0.46141 16.5648 -14.7207 12.2393 -0.919624 -2.23137
lowerback 7.78127 -0.0692235 -0.111672
upperback 4.839 -0.0953335 2.22323
thorax 0.641316 -0.0815354 2.36077
lowerneck -16.3327 0.89755 -1.30867
upperneck 19.9329 1.8863 -1.34407
head 8.948 0.633753 -0.00730869
rclavicle -9.93923e-016 -7.55382e-015
rhumerus -33.8641 -18.9973 -73.1644
rradius 22.4281
rwrist 35.15
rhand -19.8043 -26.5651
rfingers 7.12502
rthumb 6.52876 -56.4445
lclavicle -9.93923e-016 -7.55382e-015
lhumerus -30.7168 2.52658 84.536
lradius 16.4846
lwrist 6.04222
lhand -26.551 -5.23666
lfingers 7.12502
lthumb 0.0136153 24.7431
rfemur -37.5678 -2.10774 21.1104
rtibia 48.3687
rfoot -22.9765 -4.20725
rtoes 3.96406
lfemur -37.5241 10.7769 -19.4956
ltibia 48.2112
lfoot -21.4567 5.78452
ltoes -3.37791
259
root 0.461796 16.5349 -14.7275 12.3573 -0.944331 -2.23774
lowerback 8.01978 -0.0593665 -0.128351
upperback 4.86133 -0.0810854 2.23389
thorax 0.532626 -0.0744895 2.38112
lowerneck -16.407 0.902486 -1.32257
upperneck 19.7282 1.89395 -1.34461
head 8.89113 0.63844 -0.00430569
rclavicle 4.96962e-016 -6.55989e-015
rhumerus -34.24 -19.0176 -72.9651
rradius 22.3883
rwrist 35.1974
rhand -19.7484 -26.6083
rfingers 7.12502
rthumb 6.58272 -56.4859
lclavicle 4.96962e-016 -6.55989e-015
lhumerus -31.2056 2.50081 84.5023
lradius 16.3393
lwrist 5.96582
lhand -26.3973 -5.10532
lfingers 7.12502
lthumb 0.162036 24.8744
rfemur -38.0282 -2.0642 21.1223
rtibia 48.9415
rfoot -23.3317 -4.40673
rtoes 3.55088
lfemur -37.9798 10.7771 -19.5242
ltibia 48.7792
lfoot -21.71 6.00391
ltoes -3.59181
260
root 0.462214 16.5047 -14.7337 12.4811 -0.978519 -2.24583
lowerback 8.25703 -0.0475695 -0.145917
upperback 4.88096 -0.0643858 2.24357
thorax 0.421841 -0.0661845 2.40072
lowerneck -16.4939 0.910623 -1.32281
upperneck 19.531 1.90661 -1.36173
head 8.83952 0.644544 -0.00850845
rclavicle 7.35503e-015 -9.93923e-016
rhumerus -34.6121 -19.041 -72.7642
rradius 22.3549
rwrist 35.2481
rhand -19.6895 -26.6455
rfingers 7.12502
rthumb 6.63961 -56.5214
lclavicle 7.35503e-015 -9.93923e-016
lhumerus -31.6966 2.48912 84.4605
lradius 16.187
lwrist 5.83541
lhand -26.2477 -4.99298
lfingers 7.12502
lthumb 0.306514 24.9865
rfemur -38.4961 -2.01004 21.1358
rtibia 49.5175
rfoot -23.7094 -4.64165
rtoes 3.03927
lfemur -38.4393 10.7772 -19.5512
ltibia 49.3508
lfoot -21.985 6.26495
ltoes -3.87576
261
root 0.462738 16.4743 -14.7394 12.6174 -1.02213 -2.24891
lowerback 8.48253 -0.0341841 -0.168142
upperback 4.89743 -0.0460975 2.24907
thorax 0.314272 -0.0571079 2.41838
lowerneck -16.5963 0.924041 -1.30399
upperneck 19.3417 1.92635 -1.39836
head 8.79393 0.653089 -0.0215102
rclavicle 1.68967e-015 1.35174e-014
rhumerus -34.9794 -19.0788 -72.5578
rradius 22.3248
rwrist 35.3058
rhand -19.6384 -26.6609
rfingers 7.12502
rthumb 6.68893 -56.5353
lclavicle 1.68967e-015 1.35174e-014
lhumerus -32.1922 2.49134 84.4101
lradius 16.035
lwrist 5.66586
lhand -26.1289 -4.93614
lfingers 7.12502
lthumb 0.421233 25.0432
rfemur -38.9798 -1.94659 21.1426
rtibia 50.0977
rfoot -24.1092 -4.91435
rtoes 2.44148
lfemur -38.9081 10.7724 -19.585
ltibia 49.9243
lfoot -22.285 6.58123
ltoes -4.25639
262
root 0.463354 16.4434 -14.7447 12.7675 -1.07328 -2.24587
lowerback 8.69833 -0.0194467 -0.195189
upperback 4.91041 -0.0265605 2.25
thorax 0.208446 -0.0474113 2.43382
lowerneck -16.7035 0.940993 -1.2732
upperneck 19.1497 1.95022 -1.44623
head 8.74863 0.663244 -0.0397469
rclavicle -1.68967e-015 -9.74045e-015
rhumerus -35.3412 -19.1302 -72.3483
rradius 22.3019
rwrist 35.3623
rhand -19.5806 -26.6667
rfingers 7.12502
rthumb 6.74467 -56.5393
lclavicle -1.68967e-015 -9.74045e-015
lhumerus -32.6832 2.51973 84.3463
lradius 15.8777
lwrist 5.46119
lhand -26.0413 -4.9287
lfingers 7.12502
lthumb 0.505877 25.0504
rfemur -39.4806 -1.87511 21.1411
rtibia 50.6836
rfoot -24.5263 -5.22551
rtoes 1.78548
lfemur -39.388 10.7612 -19.6271
ltibia 50.4995
lfoot -22.6053 6.95722
ltoes -4.74152
263
root 0.464089 16.4124 -14.7495 12.9328 -1.12678 -2.23304
lowerback 8.91017 -0.00562162 -0.228953
upperback 4.91624 -0.00882386 2.24549
thorax 0.0975487 -0.0385648 2.44748
lowerneck -16.8104 0.962161 -1.23335
upperneck 18.952 1.9785 -1.50011
head 8.70151 0.675557 -0.0609537
rclavicle -4.87022e-015 -7.95139e-015
rhumerus -35.6975 -19.2106 -72.1294
rradius 22.2774
rwrist 35.4268
rhand -19.5227 -26.6713
rfingers 7.12502
rthumb 6.80063 -56.5421
lclavicle -4.87022e-015 -7.95139e-015
lhumerus -33.1723 2.58537 84.2606
lradius 15.7183
lwrist 5.22185
lhand -25.9672 -4.95223
lfingers 7.12502
lthumb 0.577412 25.0267
rfemur -39.9988 -1.80037 21.127
rtibia 51.2761
rfoot -24.9551 -5.57719
rtoes 1.11056
lfemur -39.8801 10.7353 -19.6798
ltibia 51.0746
lfoot -22.9474 7.3986
ltoes -5.36443
264
root 0.464942 16.3812 -14.754 13.1163 -1.18283 -2.21304
lowerback 9.12054 0.00688273 -0.268506
upperback 4.91259 0.00666193 2.23737
thorax -0.0221999 -0.0307471 2.46079
lowerneck -16.917 0.985019 -1.19665
upperneck 18.7494 2.00872 -1.55002
head 8.65273 0.689038 -0.0800355
rclavicle 5.76476e-015 2.98177e-015
rhumerus -36.0479 -19.3015 -71.9066
rradius 22.2545
rwrist 35.4867
rhand -19.4647 -26.6784
rfingers 7.12502
rthumb 6.85661 -56.5474
lclavicle 5.76476e-015 2.98177e-015
lhumerus -33.6547 2.70663 84.1451
lradius 15.5501
lwrist 4.94315
lhand -25.9015 -4.98441
lfingers 7.12502
lthumb 0.640881 24.9944
rfemur -40.5368 -1.72051 21.1026
rtibia 51.875
rfoot -25.3906 -5.95914
rtoes 0.462927
lfemur -40.3888 10.6947 -19.7408
ltibia 51.6493
lfoot -23.2988 7.91577
ltoes -6.12851
265
root 0.465944 16.35 -14.7581 13.3205 -1.23528 -2.18196
lowerback 9.33193 0.0153492 -0.317596
upperback 4.89964 0.0159801 2.22563
thorax -0.151788 -0.0259511 2.47626
lowerneck -17.0249 1.00763 -1.16897
upperneck 18.5378 2.03838 -1.58987
head 8.60095 0.702807 -0.094286
rclavicle 7.35503e-015 -8.74653e-015
rhumerus -36.3821 -19.4004 -71.6867
rradius 22.2301
rwrist 35.5359
rhand -19.4153 -26.7054
rfingers 7.12502
rthumb 6.90429 -56.5728
lclavicle 7.35503e-015 -8.74653e-015
lhumerus -34.1182 2.89232 83.9916
lradius 15.365
lwrist 4.61563
lhand -25.81 -4.9787
lfingers 7.12502
lthumb 0.729299 24.9998
rfemur -41.0947 -1.64223 21.0647
rtibia 52.4775
rfoot -25.8258 -6.35493
rtoes -0.028784
lfemur -40.916 10.6312 -19.8131
ltibia 52.2204
lfoot -23.6498 8.49704
ltoes -6.99618
266
root 0.467048 16.3189 -14.762 13.5463 -1.28056 -2.14357
lowerback 9.55019 0.0187075 -0.373587
upperback 4.87462 0.0179744 2.21285
thorax -0.297222 -0.024647 2.49528
lowerneck -17.1329 1.0306 -1.14533
upperneck 18.317 2.06822 -1.62522
head 8.54607 0.716986 -0.106327
rclavicle 8.34896e-015 -9.34288e-015
rhumerus -36.7009 -19.5042 -71.469
rradius 22.2037
rwrist 35.5753
rhand -19.3621 -26.7622
rfingers 7.12502
rthumb 6.95562 -56.6279
lclavicle 8.34896e-015 -9.34288e-015
lhumerus -34.565 3.15779 83.7909
lradius 15.1636
lwrist 4.22512
lhand -25.6718 -4.89271
lfingers 7.12502
lthumb 0.862696 25.0853
rfemur -41.6716 -1.56695 21.0184
rtibia 53.0796
rfoot -26.2513 -6.74939
rtoes -0.296812
lfemur -41.4641 10.5444 -19.8923
ltibia 52.787
lfoot -23.9888 9.12353
ltoes -7.91336
267
root 0.468186 16.2882 -14.7654 13.7919 -1.31798 -2.10132
lowerback 9.77411 0.0180348 -0.432799
upperback 4.83783 0.0143131 2.20108
thorax -0.457618 -0.025939 2.51779
lowerneck -17.2443 1.0507 -1.13367
upperneck 18.0947 2.09556 -1.65305
head 8.49114 0.729966 -0.11414
rclavicle 1.68967e-015 1.45113e-014
rhumerus -37.0099 -19.6134 -71.2468
rradius 22.1774
rwrist 35.616
rhand -19.313 -26.8219
rfingers 7.12502
rthumb 7.00305 -56.6861
lclavicle 1.68967e-015 1.45113e-014
lhumerus -34.9983 3.49471 83.549
lradius 14.9441
lwrist 3.7916
lhand -25.5319 -4.78753
lfingers 7.12502
lthumb 0.997807 25.1899
rfemur -42.264 -1.49474 20.9686
rtibia 53.6761
rfoot -26.6631 -7.15729
rtoes -0.393659
lfemur -42.0306 10.443 -19.9761
ltibia 53.3461
lfoot -24.3093 9.76611
ltoes -8.78985
268
root 0.469463 16.2579 -14.7686 14.0553 -1.34341 -2.0627
lowerback 10.0065 0.0123121 -0.48548
upperback 4.78961 0.00451255 2.19239
thorax -0.63413 -0.0299081 2.54062
lowerneck -17.3612 1.0685 -1.12823
upperneck 17.874 2.12085 -1.67825
head 8.4377 0.741801 -0.120259
rclavicle -2.98177e-016 5.36719e-014
rhumerus -37.3055 -19.7347 -71.0184
rradius 22.1465
rwrist 35.6647
rhand -19.2534 -26.8834
rfingers 7.12502
rthumb 7.06051 -56.7456
lclavicle -2.98177e-016 5.36719e-014
lhumerus -35.4215 3.89861 83.2661
lradius 14.716
lwrist 3.32412
lhand -25.3756 -4.66298
lfingers 7.12502
lthumb 1.14885 25.3137
rfemur -42.8678 -1.43053 20.9248
rtibia 54.2624
rfoot -27.0605 -7.56501
rtoes -0.334557
lfemur -42.6133 10.3267 -20.0556
ltibia 53.8966
lfoot -24.6078 10.3956
ltoes -9.54111
269
root 0.470853 16.2281 -14.7713 14.3368 -1.35819 -2.02798
lowerback 10.247 0.00312592 -0.530957
upperback 4.7295 -0.00922523 2.18637
thorax -0.827103 -0.0354298 2.56278
lowerneck -17.4879 1.08616 -1.11902
upperneck 17.6594 2.14651 -1.70971
head 8.38824 0.753284 -0.128983
rclavicle 4.17448e-015 -3.77691e-015
rhumerus -37.5906 -19.8638 -70.7845
rradius 22.1112
rwrist 35.7216
rhand -19.195 -26.9421
rfingers 7.12502
rthumb 7.1169 -56.8025
lclavicle 4.17448e-015 -3.77691e-015
lhumerus -35.8333 4.36415 82.9425
lradius 14.4767
lwrist 2.82382
lhand -25.2184 -4.53224
lfingers 7.12502
lthumb 1.30066 25.4435
rfemur -43.4823 -1.37333 20.8868
rtibia 54.8357
rfoot -27.4439 -7.96552
rtoes -0.196893
lfemur -43.2108 10.1941 -20.1294
ltibia 54.4373
lfoot -24.8822 11.004
ltoes -10.1087
